<svg width="697" height="247" viewBox="0 0 697 247" fill="none" xmlns="http://www.w3.org/2000/svg">
  <path fill-rule="evenodd" clip-rule="evenodd" d="M531.736 90.7389V171.468H551.74V114.427L585.051 151.792V171.468H605.055V79.9272H585.051V121.682L551.496 83.9326L551.302 83.7388C550.746 83.1827 549.861 82.3351 548.801 81.6287C546.833 80.3164 544.673 79.7922 542.683 79.7922C539.844 79.7922 537.569 80.8907 536.007 82.0626C532.81 84.4598 531.736 87.9318 531.736 90.7389Z" fill="white"/>
  <path fill-rule="evenodd" clip-rule="evenodd" d="M321.29 79.9272H282.808V171.468H302.812V144.878H321.29C326.045 144.878 330.59 144.389 334.542 143.034C338.193 141.812 341.754 139.918 344.549 136.949L344.64 136.852L344.728 136.753C347.195 133.977 348.88 130.728 349.775 127.15L349.785 127.107L349.796 127.064C350.527 124.018 350.863 120.85 350.863 117.599V107.611C350.863 104.36 350.527 101.192 349.796 98.1455C348.923 94.5076 347.256 91.1656 344.728 88.3217C341.958 85.2053 338.386 83.2118 334.672 81.9495C330.652 80.4604 326.055 79.9272 321.29 79.9272ZM328.019 100.833C329.271 101.236 329.656 101.606 329.685 101.636C329.941 101.926 330.137 102.268 330.262 102.843L330.303 103.031L330.351 103.216C330.666 104.421 330.859 105.87 330.859 107.611V117.599C330.859 119.34 330.666 120.788 330.351 121.993L330.314 122.136L330.281 122.281C330.193 122.668 330.053 122.974 329.818 123.278C329.659 123.403 329.158 123.74 328.019 124.107L327.971 124.122L327.924 124.138C326.816 124.507 324.732 124.874 321.29 124.874H302.812V99.9309H321.29C324.666 99.9309 326.638 100.331 327.634 100.7L327.825 100.771L328.019 100.833Z" fill="white"/>
  <path d="M386.313 79.9272H366.309V171.468H434.634V124.874H414.63V151.464H386.313V79.9272Z" fill="white"/>
  <path d="M516.201 79.9272H452.061V171.468H516.201V151.464H472.064V135.159H505.268V115.156H472.064V99.9309H516.201V79.9272Z" fill="white"/>
  <path fill-rule="evenodd" clip-rule="evenodd" d="M617.613 79.4468V171.335H663.445C669.069 171.335 674.247 170.806 678.621 169.417C682.702 168.151 686.608 166.205 689.671 163.163C692.594 160.351 694.574 156.893 695.583 152.993C696.409 149.883 696.79 146.646 696.79 143.325V107.047C696.79 103.772 696.42 100.578 695.618 97.509C694.694 93.5331 692.68 90.0631 689.737 87.262C686.672 84.3442 682.781 82.4665 678.735 81.2163L678.624 81.182L678.513 81.1506C674.171 79.9309 669.055 79.4468 663.445 79.4468H617.613ZM637.099 152.003H663.445C667.751 152.003 670.611 151.578 672.358 151.037L672.398 151.024L672.439 151.012C674.655 150.348 675.555 149.676 675.818 149.425C676.258 149.005 676.538 148.552 676.719 147.9C677.093 146.556 677.304 145.043 677.304 143.325V107.047C677.304 105.328 677.093 103.815 676.719 102.471L676.678 102.324L676.642 102.176C676.564 101.851 676.429 101.554 676.08 101.192C675.706 100.893 674.733 100.284 672.678 99.659C670.836 99.1577 667.861 98.7789 663.445 98.7789H637.099V152.003Z" fill="white"/>
  <path d="M193.073 186.99L173.442 167.553C169.91 164.056 172.416 158.092 177.4 158.092H193.273C211.251 158.092 225.831 143.656 225.831 125.855H23.3657C23.3657 143.656 37.9456 158.092 55.9238 158.092H71.7963C76.7807 158.092 79.2862 164.056 75.7545 167.553L56.1237 186.99C53.9381 189.154 53.9381 192.665 56.1237 194.829L71.2233 209.779C73.4089 211.943 76.9539 211.943 79.1396 209.779L98.7704 190.342C102.302 186.845 108.326 189.326 108.326 194.261V218.198C108.326 221.26 110.831 223.74 113.923 223.74H135.287C138.378 223.74 140.884 221.26 140.884 218.198V194.261C140.884 189.326 146.908 186.845 150.439 190.342L170.07 209.779C172.256 211.943 175.801 211.943 177.987 209.779L193.086 194.829C195.272 192.665 195.272 189.154 193.086 186.99H193.073Z" fill="white"/>
  <path d="M124.568 57.6731C148.356 57.6731 169.267 70.1166 180.995 88.7754H68.1408C79.882 70.1166 100.792 57.6731 124.581 57.6731H124.568ZM124.581 23.0079C68.6339 23.0079 23.1353 68.0581 23.1353 123.44H226C226 68.0581 180.501 23.0079 124.568 23.0079L124.581 23.0079Z" fill="#E6D4FF"/>
  <path d="M124.56 57.5988C87.8306 57.5988 58.0446 87.078 58.0446 123.459H191.075C191.075 87.0912 161.289 57.5988 124.56 57.5988Z" fill="#B582FF"/>
  <path d="M156.116 123.443H93.1057C93.1057 106.236 107.232 92.2488 124.611 92.2488C141.989 92.2488 156.116 106.236 156.116 123.443Z" fill="white"/>
</svg>
