<svg width="414" height="373" viewBox="0 0 414 373" fill="none" xmlns="http://www.w3.org/2000/svg">
<path d="M275.817 186.283L256.186 166.846C252.654 163.349 255.16 157.385 260.144 157.385H276.016C293.995 157.385 308.575 142.949 308.575 125.148H106.109C106.109 142.949 120.689 157.385 138.668 157.385H154.54C159.524 157.385 162.03 163.349 158.498 166.846L138.867 186.283C136.682 188.447 136.682 191.958 138.867 194.122L153.967 209.072C156.153 211.236 159.698 211.236 161.883 209.072L181.514 189.635C185.046 186.138 191.07 188.619 191.07 193.554V217.491C191.07 220.553 193.575 223.033 196.667 223.033H218.03C221.122 223.033 223.628 220.553 223.628 217.491V193.554C223.628 188.619 229.652 186.138 233.183 189.635L252.814 209.072C255 211.236 258.545 211.236 260.73 209.072L275.83 194.122C278.015 191.958 278.015 188.447 275.83 186.283H275.817Z" fill="white"/>
<path d="M207.311 56.9661C231.1 56.9661 252.01 69.4096 263.738 88.0684H150.884C162.626 69.4096 183.536 56.9661 207.325 56.9661H207.311ZM207.325 22.301C151.378 22.301 105.879 67.3511 105.879 122.734H308.744C308.744 67.3511 263.245 22.301 207.311 22.301L207.325 22.301Z" fill="#E6D4FF"/>
<path d="M207.304 56.8918C170.574 56.8918 140.788 86.371 140.788 122.752H273.819C273.819 86.3842 244.033 56.8918 207.304 56.8918Z" fill="#B582FF"/>
<path d="M238.86 122.736H175.849C175.849 105.529 189.976 91.5418 207.355 91.5418C224.733 91.5418 238.86 105.529 238.86 122.736Z" fill="white"/>
<path fill-rule="evenodd" clip-rule="evenodd" d="M248.928 291.633V372.361H268.931V315.321L302.243 352.686V372.361H322.247V280.821H302.243V322.575L268.688 284.826L268.494 284.632C267.938 284.076 267.053 283.229 265.993 282.522C264.025 281.21 261.865 280.686 259.874 280.686C257.036 280.686 254.761 281.784 253.198 282.956C250.002 285.353 248.928 288.825 248.928 291.633Z" fill="white"/>
<path fill-rule="evenodd" clip-rule="evenodd" d="M38.4815 280.821H-0.000106812V372.361H20.0036V345.771H38.4815C43.2369 345.771 47.7817 345.282 51.7338 343.928C55.3851 342.705 58.9456 340.812 61.7404 337.843L61.8314 337.746L61.9196 337.647C64.3869 334.871 66.0719 331.622 66.9664 328.043L66.9771 328.001L66.9874 327.958C67.7185 324.911 68.0548 321.743 68.0548 318.493V308.504C68.0548 305.254 67.7185 302.086 66.9874 299.039C66.1143 295.401 64.4475 292.059 61.9196 289.215C59.1494 286.099 55.5783 284.105 51.8641 282.843C47.8436 281.354 43.2463 280.821 38.4815 280.821ZM45.2106 301.727C46.4628 302.129 46.8475 302.5 46.8769 302.53C47.1324 302.82 47.3291 303.162 47.4541 303.737L47.4948 303.924L47.5432 304.11C47.8576 305.315 48.051 306.764 48.051 308.504V318.493C48.051 320.233 47.8576 321.682 47.5432 322.887L47.5059 323.03L47.4731 323.174C47.3851 323.562 47.2445 323.868 47.0094 324.172C46.8505 324.297 46.3498 324.634 45.2106 325L45.1629 325.016L45.1153 325.031C44.0082 325.4 41.9239 325.768 38.4815 325.768H20.0036V300.825H38.4815C41.8577 300.825 43.83 301.225 44.8254 301.594L45.0165 301.664L45.2106 301.727Z" fill="white"/>
<path d="M103.505 280.821H83.501V372.361H151.826V325.768H131.822V352.358H103.505V280.821Z" fill="white"/>
<path d="M233.393 280.821H169.252V372.361H233.393V352.358H189.256V336.053H222.46V316.049H189.256V300.825H233.393V280.821Z" fill="white"/>
<path fill-rule="evenodd" clip-rule="evenodd" d="M334.805 280.34V372.229H380.636C386.26 372.229 391.439 371.699 395.813 370.31C399.894 369.045 403.799 367.098 406.863 364.057C409.786 361.244 411.766 357.786 412.775 353.887C413.601 350.777 413.982 347.54 413.982 344.218V307.94C413.982 304.665 413.612 301.472 412.809 298.403C411.886 294.427 409.872 290.957 406.929 288.156C403.864 285.238 399.973 283.36 395.927 282.11L395.816 282.076L395.704 282.044C391.363 280.824 386.247 280.34 380.636 280.34H334.805ZM354.291 352.896H380.636C384.943 352.896 387.803 352.472 389.55 351.93L389.59 351.918L389.631 351.905C391.847 351.241 392.747 350.57 393.01 350.318C393.45 349.898 393.729 349.445 393.911 348.794C394.284 347.45 394.496 345.937 394.496 344.218V307.94C394.496 306.221 394.284 304.709 393.911 303.365L393.87 303.218L393.834 303.069C393.755 302.745 393.621 302.448 393.272 302.086C392.898 301.787 391.924 301.177 389.87 300.553C388.028 300.051 385.052 299.672 380.636 299.672H354.291V352.896Z" fill="white"/>
</svg>
