<svg width="1523" height="288" viewBox="0 0 1523 288" fill="none" xmlns="http://www.w3.org/2000/svg">
<path fill-rule="evenodd" clip-rule="evenodd" d="M87.6594 118.427C87.6594 113.943 91.2941 110.309 95.7778 110.309H107.583C161.51 110.309 198.953 164.014 180.305 214.614C176.616 224.624 167.079 231.273 156.411 231.273H38.1658C7.39886 231.273 -7.63166 193.739 14.6311 172.503L39.9864 148.317C43.2308 145.222 48.3696 145.343 51.4644 148.588C54.5591 151.832 54.4378 156.971 51.1934 160.066L25.8382 184.252C14.1767 195.375 22.0498 215.036 38.1658 215.036H156.411C160.277 215.036 163.733 212.626 165.07 208.999C179.812 169 150.212 126.545 107.583 126.545H95.7778C91.2941 126.545 87.6594 122.911 87.6594 118.427Z" fill="white" stroke="white" stroke-width="6.54545" stroke-linecap="round"/>
<path fill-rule="evenodd" clip-rule="evenodd" d="M121.962 169.573C121.962 174.057 118.327 177.691 113.843 177.691H102.038C48.1111 177.691 10.6676 123.986 29.3164 73.3859C33.0054 63.3764 42.5423 56.7273 53.21 56.7273H171.455C202.222 56.7273 217.253 94.2611 194.99 115.497L169.635 139.683C166.39 142.778 161.251 142.657 158.157 139.412C155.062 136.168 155.183 131.029 158.428 127.934L183.783 103.748C195.444 92.6246 187.571 72.9641 171.455 72.9641H53.21C49.3442 72.9641 45.8882 75.3736 44.5514 79.0008C29.8095 119 59.4087 161.455 102.038 161.455H113.843C118.327 161.455 121.962 165.089 121.962 169.573Z" fill="white" stroke="white" stroke-width="6.54545" stroke-linecap="round"/>
<path d="M303.266 225.994C282.436 225.994 266.408 220.935 255.181 210.815C243.732 200.918 237.453 187.142 236.345 169.489H272.465C273.129 177.687 276.232 183.892 281.771 188.102C287.164 192.386 294.328 194.528 303.266 194.528C323.061 194.528 332.959 189.062 332.959 178.131C332.959 173.699 331.519 170.153 328.638 167.494C325.683 164.983 320.698 162.952 313.681 161.401L290.524 156.415C274.791 152.943 262.789 147.625 254.516 140.46C245.874 133.443 241.553 122.881 241.553 108.773C241.553 95.3295 247.24 84.3608 258.615 75.8665C269.99 67.3722 284.948 63.125 303.487 63.125C321.806 63.125 336.948 67.9631 348.914 77.6392C360.658 87.3892 366.641 99.7983 366.862 114.866H330.743C330.3 109.253 327.789 104.489 323.209 100.574C318.556 96.8068 311.834 94.9233 303.044 94.9233C294.328 94.9233 288.05 96.2898 284.209 99.0227C280.146 101.756 278.115 105.006 278.115 108.773C278.115 112.023 279.408 114.94 281.993 117.526C284.357 119.889 289.047 121.884 296.064 123.509L317.558 128.051C334.178 131.449 346.956 136.878 355.894 144.338C364.979 151.872 369.521 162.841 369.521 177.244C369.521 192.312 364.166 204.205 353.456 212.92C342.968 221.636 326.237 225.994 303.266 225.994ZM449.135 225.994C429.709 225.994 413.68 220.418 401.049 209.264C388.345 198.185 381.993 182.156 381.993 161.179V65.1193H417.558V160.736C417.558 183.116 428.084 194.307 449.135 194.307C470.334 194.307 480.933 183.116 480.933 160.736V65.1193H516.72V161.179C516.72 182.156 510.442 198.185 497.885 209.264C485.032 220.418 468.782 225.994 449.135 225.994ZM539.384 224V65.1193H611.623C627.356 65.1193 640.06 70.0682 649.736 79.9659C659.265 89.9375 664.029 102.457 664.029 117.526C664.029 133.037 659.265 145.778 649.736 155.75C640.06 165.869 627.356 170.929 611.623 170.929H575.06V224H539.384ZM575.06 139.131H604.532C619.969 139.131 627.688 131.929 627.688 117.526C627.688 110.73 625.657 105.523 621.594 101.903C617.458 98.4318 611.771 96.696 604.532 96.696H575.06V139.131ZM679.935 224V65.1193H793.389V96.9176H715.611V126.168H786.409V157.966H715.611V192.423H793.389V224H679.935ZM909.508 163.616L947.843 221.784V224H906.073L871.837 167.937H849.567V224H813.891V65.1193H886.573C902.749 65.1193 915.897 70.0682 926.016 79.9659C935.84 89.7898 940.752 101.719 940.752 115.753C940.752 126.906 938.019 136.73 932.553 145.224C926.939 153.645 919.258 159.776 909.508 163.616ZM849.567 96.9176V136.139H884.689C891.263 136.139 896.175 134.182 899.425 130.267C902.601 126.426 904.189 121.662 904.189 115.974C904.189 110.73 902.601 106.187 899.425 102.347C896.027 98.7273 891.115 96.9176 884.689 96.9176H849.567ZM963.633 224V65.1193H999.309V192.202H1071.44V224H963.633ZM1084.96 224V65.1193H1198.41V96.9176H1120.63V126.168H1191.43V157.966H1120.63V192.423H1198.41V224H1084.96ZM1218.91 224V65.1193H1260.91L1319.52 168.824H1320.4V65.1193H1355.75V224H1313.53L1255.03 120.96H1254.15V224H1218.91ZM1378.47 224V65.1193H1433.42C1457.36 65.1193 1477 72.4687 1492.37 87.1676C1507.8 101.94 1515.52 121.071 1515.52 144.56C1515.52 167.162 1507.99 185.997 1492.92 201.065C1477.63 216.355 1457.8 224 1433.42 224H1378.47ZM1411.82 192.423H1431.43C1446.72 192.423 1458.5 188.509 1466.77 180.679C1475.12 172.776 1479.29 160.736 1479.29 144.56C1479.29 128.605 1475.12 116.676 1466.77 108.773C1458.43 100.869 1446.65 96.9176 1431.43 96.9176H1411.82V192.423Z" fill="white"/>
</svg>
