<?xml version="1.0" encoding="UTF-8"?>
<svg version="1.1" xmlns="http://www.w3.org/2000/svg" width="128" height="128">
<path d="M0 0 C0.0698268 7.40676057 0.12297582 14.81344896 0.15543652 22.22047329 C0.17102416 25.66069184 0.19213408 29.10068348 0.22631836 32.54077148 C0.26546007 36.50501697 0.27976629 40.46917387 0.29296875 44.43359375 C0.30845261 45.65582138 0.32393646 46.87804901 0.33988953 48.13731384 C0.34154049 56.59293291 -0.15166272 64.06000845 -5.91796875 70.62109375 C-10.77378598 75.04369716 -16.55445139 77.98404062 -22.3125 81.0625 C-24.47604789 82.23943898 -26.63881824 83.41780848 -28.80078125 84.59765625 C-29.84218262 85.16291016 -30.88358398 85.72816406 -31.95654297 86.31054688 C-35.67899696 88.37691793 -39.3173147 90.56320967 -42.94116211 92.79711914 C-47.58709334 95.51151534 -51.65391381 96.37298276 -57 96 C-58.67583957 94.32416043 -58.15317683 92.26554574 -58.17700195 89.96459961 C-58.18983719 88.88935532 -58.20267242 87.81411102 -58.21589661 86.70628357 C-58.22328354 85.53348343 -58.23067047 84.36068329 -58.23828125 83.15234375 C-58.246353 81.95194962 -58.25442474 80.75155548 -58.26274109 79.51478577 C-58.27660648 76.96503147 -58.28731758 74.41525843 -58.29516602 71.86547852 C-58.31231989 67.97831494 -58.35617879 64.09201456 -58.40039062 60.20507812 C-58.41052221 57.72917293 -58.41903685 55.25326049 -58.42578125 52.77734375 C-58.44328934 51.61871323 -58.46079742 50.4600827 -58.47883606 49.26634216 C-58.46121671 42.65775283 -57.99682967 37.4348311 -54 32 C-51.984375 30.02368164 -51.984375 30.02368164 -49.75 28.59765625 C-48.87085938 28.02934082 -47.99171875 27.46102539 -47.0859375 26.87548828 C-46.06757812 26.25657715 -45.04921875 25.63766602 -44 25 C-43.41637695 24.64266785 -42.83275391 24.28533569 -42.23144531 23.91717529 C-37.51806246 21.03849202 -32.76274858 18.23347878 -28 15.4375 C-25.89244217 14.19492307 -23.78555312 12.95121784 -21.67871094 11.70742798 C-20.32325403 10.90794285 -18.9671468 10.10955916 -17.61035156 9.31234741 C-12.97947734 6.58995863 -8.38552151 3.8122064 -3.8203125 0.98071289 C-2 0 -2 0 0 0 Z " fill="#03BBE8" transform="translate(70,6)"/>
<path d="M0 0 C9.24202066 3.14657031 16.58131981 11.47243639 21 20 C21.85969531 22.86164083 22.13435599 25.44436675 22.16113281 28.42626953 C22.17074036 29.29462433 22.1803479 30.16297913 22.19024658 31.05764771 C22.19449646 31.98995209 22.19874634 32.92225647 22.203125 33.8828125 C22.20882507 34.852258 22.21452515 35.82170349 22.22039795 36.82052612 C22.22983903 38.87317823 22.23637839 40.92584543 22.24023438 42.97851562 C22.24989983 46.09272374 22.28091532 49.20626031 22.3125 52.3203125 C22.31903469 54.32030861 22.32428333 56.32030941 22.328125 58.3203125 C22.3404718 59.2404715 22.3528186 60.16063049 22.36553955 61.1086731 C22.34116067 68.31623244 21.55641716 75.48514495 17.21508789 81.45410156 C10.75504628 86.75598673 3.78984072 90.81121018 -3.5625 94.75 C-4.75513121 95.40129391 -5.94719186 96.05363372 -7.13867188 96.70703125 C-10.41490253 98.49273279 -13.70248343 100.25397454 -17 102 C-17.81404297 102.4326416 -18.62808594 102.8652832 -19.46679688 103.31103516 C-27.79775159 107.62569473 -35.0906796 107.67408174 -44 105 C-48.06070629 103.46221774 -52.04098603 101.78223653 -56 100 C-56 99.67 -56 99.34 -56 99 C-54.84359009 98.91504272 -54.84359009 98.91504272 -53.66381836 98.82836914 C-43.98338103 97.77257176 -36.79052266 94.25116669 -28.5625 89.4375 C-27.27997006 88.70331094 -25.99684389 87.97016245 -24.71313477 87.23803711 C-22.22779434 85.81419805 -19.7513083 84.37664781 -17.28222656 82.92480469 C-14.58448144 81.34275897 -11.87247421 79.79374369 -9.1484375 78.2578125 C-7.90925653 77.52977641 -6.67198105 76.79847727 -5.4375 76.0625 C-4.44621094 75.47597656 -3.45492187 74.88945313 -2.43359375 74.28515625 C2.36346963 69.78069064 4.19158272 64.03779404 4.50170898 57.54711914 C4.52112723 55.54322472 4.51825353 53.53902223 4.49609375 51.53515625 C4.4982766 49.92512978 4.4982766 49.92512978 4.50050354 48.28257751 C4.49885184 46.02437614 4.48737295 43.76616264 4.46655273 41.50805664 C4.43761249 38.07584143 4.44595816 34.64517545 4.45898438 31.21289062 C4.45274522 29.00780508 4.4443529 26.80272437 4.43359375 24.59765625 C4.43652939 23.58381363 4.43946503 22.56997101 4.44248962 21.52540588 C4.35574638 14.88343534 3.22691334 9.24887276 1 3 C0.505 1.515 0.505 1.515 0 0 Z " fill="#092033" transform="translate(72,6)"/>
<path d="M0 0 C8.55803346 4.09297252 16.44897959 11.07860921 20 20 C20.86113421 25.54875098 21.15953287 30.95041101 21.16796875 36.55859375 C21.17296135 37.74147728 21.17296135 37.74147728 21.17805481 38.94825745 C21.18308337 40.60457787 21.18546441 42.26090828 21.18530273 43.91723633 C21.18749121 46.42741816 21.20569578 48.93716113 21.22460938 51.44726562 C21.22754392 53.06770685 21.22952831 54.68815014 21.23046875 56.30859375 C21.23765427 57.04637558 21.24483978 57.78415741 21.25224304 58.54429626 C21.21972448 66.0937647 20.52657225 73.57017764 15.13183594 79.24462891 C10.25923765 83.25676607 4.63690394 86.15942524 -0.875 89.1875 C-2.12958962 89.89136144 -3.38350165 90.59643206 -4.63671875 91.30273438 C-27.09305622 103.90824689 -27.09305622 103.90824689 -38.26953125 101.2109375 C-43.47685848 99.67971445 -47.71293196 98.36981074 -52 95 C-50.88878784 94.77304443 -50.88878784 94.77304443 -49.75512695 94.54150391 C-42.15168822 92.83791889 -35.92057468 90.24818032 -29.1875 86.375 C-28.24479248 85.84737061 -27.30208496 85.31974121 -26.33081055 84.77612305 C-19.97675927 81.19828677 -13.68210464 77.51375246 -7.47924805 73.67919922 C-4.98833502 72.14370985 -2.79123742 70.93041247 0 70 C1.16953416 67.57616923 1.16953416 67.57616923 2 65 C2.495 64.01 2.495 64.01 3 63 C3.10567509 61.32204626 3.14875893 59.63997278 3.16113281 57.95874023 C3.17074036 56.90681992 3.1803479 55.8548996 3.19024658 54.77110291 C3.19449646 53.62847488 3.19874634 52.48584686 3.203125 51.30859375 C3.21167511 49.54697655 3.21167511 49.54697655 3.22039795 47.74977112 C3.22986115 45.2572622 3.23638715 42.76474071 3.24023438 40.2722168 C3.2498982 36.47747538 3.28089263 32.68328511 3.3125 28.88867188 C3.31903417 26.46614905 3.32428301 24.04362234 3.328125 21.62109375 C3.3404718 20.49263535 3.3528186 19.36417694 3.36553955 18.20152283 C3.34675285 11.4784371 2.49390718 6.25575627 0 0 Z " fill="#092033" transform="translate(96,21)"/>
<path d="M0 0 C-1.76429199 4.97209562 -4.3939166 9.43438061 -7 14 C-5.576875 13.9071875 -5.576875 13.9071875 -4.125 13.8125 C-3.09375 13.874375 -2.0625 13.93625 -1 14 C1.51618513 17.77427769 1.08460094 19.40470138 0.46875 23.72265625 C-0.83701964 30.06652039 -3.87209646 33.41046752 -9 37 C-11.75 37.9375 -11.75 37.9375 -14 38 C-14.66 37.34 -15.32 36.68 -16 36 C-15.625 33.375 -15.625 33.375 -15 31 C-13.68 30.67 -12.36 30.34 -11 30 C-11.495 32.475 -11.495 32.475 -12 35 C-7.48209561 32.80210057 -5.72483897 30.72061191 -4 26 C-3.74855688 22.24926796 -3.74855688 22.24926796 -4 19 C-6.35367713 18.3121764 -6.35367713 18.3121764 -9 18 C-9.99 18.66 -10.98 19.32 -12 20 C-10.39749629 14.79186293 -8.25140683 9.95309502 -6 5 C-8.97 6.65 -11.94 8.3 -15 10 C-15 14.95 -15 19.9 -15 25 C-14.34 25 -13.68 25 -13 25 C-11.61767557 23.37373596 -10.28062485 21.7074998 -9 20 C-9.28902269 23.46827222 -9.81671788 24.80653554 -12.25 27.375 C-15 29 -15 29 -20 28 C-20 23.05 -20 18.1 -20 13 C-21.65 13.66 -23.3 14.32 -25 15 C-24 12 -24 12 -21 10 C-20.63702064 8.02252878 -20.63702064 8.02252878 -20.8125 5.875 C-20.874375 4.59625 -20.93625 3.3175 -21 2 C-19.35 1.67 -17.7 1.34 -16 1 C-15.67 2.98 -15.34 4.96 -15 7 C-14.16855469 6.4946875 -13.33710937 5.989375 -12.48046875 5.46875 C-11.39378906 4.8190625 -10.30710937 4.169375 -9.1875 3.5 C-8.10855469 2.8503125 -7.02960937 2.200625 -5.91796875 1.53125 C-3 0 -3 0 0 0 Z " fill="#EBF9FD" transform="translate(53,44)"/>
<path d="M0 0 C-0.20496094 0.60328125 -0.40992188 1.2065625 -0.62109375 1.828125 C-0.89050781 2.62734375 -1.15992188 3.4265625 -1.4375 4.25 C-1.70433594 5.03890625 -1.97117187 5.8278125 -2.24609375 6.640625 C-2.91954708 8.74821988 -3.49150595 10.84753973 -4 13 C-3.21625 12.79375 -2.4325 12.5875 -1.625 12.375 C-0.325625 12.189375 -0.325625 12.189375 1 12 C3 14 3 14 3.3125 17.25 C2.91433709 22.02795497 1.47930764 25.15086544 -1.5 28.875 C-3 30 -3 30 -6 30 C-5.67 28.35 -5.34 26.7 -5 25 C-6.32 24.67 -7.64 24.34 -9 24 C-7.35 22.02 -5.7 20.04 -4 18 C-4.99 18.99 -5.98 19.98 -7 21 C-7.99 20.67 -8.98 20.34 -10 20 C-11.22204139 6.50662637 -11.22204139 6.50662637 -8.2890625 2.890625 C-5.53712333 1.20170927 -3.26319512 0 0 0 Z " fill="#14BFE9" transform="translate(47,49)"/>
<path d="M0 0 C0.66 0.33 1.32 0.66 2 1 C-0.2235147 4.51081269 -2.06950099 5.72258782 -6 7 C-6.99 7.33 -7.98 7.66 -9 8 C-9 7.01 -9 6.02 -9 5 C-7.54735962 4.1361871 -6.0876837 3.28419546 -4.625 2.4375 C-3.40683594 1.72400391 -3.40683594 1.72400391 -2.1640625 0.99609375 C-1.44992188 0.66738281 -0.73578125 0.33867188 0 0 Z " fill="#D7F4FB" transform="translate(48,45)"/>
<path d="M0 0 C0.66 0.33 1.32 0.66 2 1 C1.01 1.66 0.02 2.32 -1 3 C-1.73606499 6.56769552 -1.73606499 6.56769552 -2 10 C-2.66 10 -3.32 10 -4 10 C-4 8.35 -4 6.7 -4 5 C-4.66 4.67 -5.32 4.34 -6 4 C-4.02 2.68 -2.04 1.36 0 0 Z " fill="#6DD7F2" transform="translate(48,24)"/>
<path d="M0 0 C0.99 0.66 1.98 1.32 3 2 C3 2.99 3 3.98 3 5 C1.35 5.33 -0.3 5.66 -2 6 C-2.33 4.68 -2.66 3.36 -3 2 C-2.01 1.34 -1.02 0.68 0 0 Z " fill="#72D8F2" transform="translate(34,35)"/>
<path d="" fill="#0A2034" transform="translate(0,0)"/>
<path d="" fill="#0A2034" transform="translate(0,0)"/>
</svg>
